<svg width="27" height="27" viewBox="0 0 27 27" fill="none" xmlns="http://www.w3.org/2000/svg">
<path d="M11.0071 11.4212C11.0071 11.2035 10.9426 10.9908 10.8217 10.8098C10.7008 10.6288 10.5289 10.4878 10.3278 10.4045C10.1267 10.3212 9.90543 10.2994 9.69195 10.3418C9.47847 10.3843 9.28238 10.4891 9.12847 10.643C8.97457 10.7969 8.86975 10.993 8.82729 11.2065C8.78483 11.42 8.80662 11.6413 8.88991 11.8424C8.97321 12.0434 9.11426 12.2153 9.29524 12.3362C9.47622 12.4572 9.68899 12.5217 9.90665 12.5217C10.1985 12.5217 10.4784 12.4058 10.6848 12.1994C10.8912 11.993 11.0071 11.7131 11.0071 11.4212ZM15.9594 15.8892C15.8345 15.816 15.6963 15.7682 15.5528 15.7485C15.4093 15.7288 15.2634 15.7376 15.1233 15.7744C14.9833 15.8112 14.8518 15.8753 14.7366 15.963C14.6213 16.0507 14.5245 16.1602 14.4517 16.2854C14.3268 16.5051 14.1459 16.6877 13.9275 16.8148C13.709 16.9418 13.4608 17.0088 13.2082 17.0088C12.9555 17.0088 12.7073 16.9418 12.4888 16.8148C12.2704 16.6877 12.0895 16.5051 11.9646 16.2854C11.8918 16.1602 11.795 16.0507 11.6797 15.963C11.5645 15.8753 11.433 15.8112 11.293 15.7744C11.1529 15.7376 11.007 15.7288 10.8635 15.7485C10.72 15.7682 10.5818 15.816 10.4569 15.8892C10.2052 16.0344 10.0211 16.2733 9.94481 16.5537C9.86853 16.8341 9.90624 17.1332 10.0497 17.3859C10.3689 17.9415 10.829 18.403 11.3835 18.7239C11.9381 19.0449 12.5674 19.2139 13.2082 19.2139C13.8489 19.2139 14.4782 19.0449 15.0328 18.7239C15.5873 18.403 16.0474 17.9415 16.3666 17.3859C16.5101 17.1332 16.5478 16.8341 16.4715 16.5537C16.3952 16.2733 16.2111 16.0344 15.9594 15.8892ZM16.5097 10.3207C16.292 10.3207 16.0792 10.3852 15.8983 10.5062C15.7173 10.6271 15.5762 10.799 15.4929 11.0001C15.4096 11.2012 15.3878 11.4224 15.4303 11.6359C15.4728 11.8494 15.5776 12.0455 15.7315 12.1994C15.8854 12.3533 16.0815 12.4581 16.295 12.5006C16.5084 12.543 16.7297 12.5212 16.9308 12.4379C17.1319 12.3546 17.3038 12.2136 17.4247 12.0326C17.5456 11.8516 17.6102 11.6389 17.6102 11.4212C17.6102 11.1293 17.4942 10.8494 17.2878 10.643C17.0814 10.4366 16.8015 10.3207 16.5097 10.3207ZM13.2082 2.61719C11.0316 2.61719 8.90386 3.26262 7.09409 4.47187C5.28432 5.68112 3.87378 7.39987 3.04084 9.41077C2.20789 11.4217 1.98996 13.6344 2.41459 15.7692C2.83922 17.9039 3.88735 19.8649 5.42643 21.4039C6.96551 22.943 8.92641 23.9911 11.0612 24.4158C13.1959 24.8404 15.4087 24.6225 17.4196 23.7895C19.4305 22.9566 21.1492 21.546 22.3585 19.7363C23.5677 17.9265 24.2132 15.7988 24.2132 13.6222C24.2132 12.177 23.9285 10.746 23.3755 9.41077C22.8224 8.07558 22.0118 6.8624 20.9899 5.84048C19.968 4.81857 18.7548 4.00795 17.4196 3.4549C16.0844 2.90184 14.6534 2.61719 13.2082 2.61719ZM13.2082 22.4262C11.1583 22.4351 9.16953 21.7283 7.58493 20.4279C6.00033 19.1274 4.91919 17.3148 4.52796 15.3026C4.13673 13.2903 4.45993 11.2047 5.44183 9.4052C6.42373 7.60576 8.00277 6.20535 9.90665 5.44548C9.89533 5.60301 9.89533 5.76116 9.90665 5.91869C9.90665 6.79431 10.2545 7.63406 10.8736 8.25321C11.4928 8.87237 12.3325 9.2202 13.2082 9.2202C13.5 9.2202 13.7799 9.10426 13.9863 8.89787C14.1927 8.69149 14.3087 8.41157 14.3087 8.1197C14.3087 7.82783 14.1927 7.54791 13.9863 7.34153C13.7799 7.13514 13.5 7.0192 13.2082 7.0192C12.9163 7.0192 12.6364 6.90325 12.43 6.69687C12.2236 6.49048 12.1077 6.21057 12.1077 5.91869C12.1077 5.62682 12.2236 5.34691 12.43 5.14052C12.6364 4.93414 12.9163 4.81819 13.2082 4.81819C15.5431 4.81819 17.7825 5.74576 19.4335 7.39683C21.0846 9.0479 22.0122 11.2872 22.0122 13.6222C22.0122 15.9572 21.0846 18.1965 19.4335 19.8476C17.7825 21.4987 15.5431 22.4262 13.2082 22.4262Z" fill="black"/>
</svg>
