<svg width="20" height="16" viewBox="0 0 20 16" fill="none" xmlns="http://www.w3.org/2000/svg">
<path d="M2 15.9739C1.45 15.9739 0.979333 15.7785 0.588 15.3879C0.196667 14.9972 0.000666667 14.5269 0 13.9772V1.99674C0 1.44763 0.196 0.977735 0.588 0.58704C0.98 0.196346 1.45067 0.000665579 2 0H18C18.55 0 19.021 0.19568 19.413 0.58704C19.805 0.978401 20.0007 1.4483 20 1.99674V13.9772C20 14.5263 19.8043 14.9965 19.413 15.3879C19.0217 15.7792 18.5507 15.9746 18 15.9739H2ZM10 8.98532L2 3.99347V13.9772H18V3.99347L10 8.98532ZM10 6.98858L18 1.99674H2L10 6.98858ZM2 3.99347V1.99674V13.9772V3.99347Z" fill="white"/>
</svg>
