<svg width="80" height="80" viewBox="0 0 80 80" fill="none" xmlns="http://www.w3.org/2000/svg">
<g clip-path="url(#clip0_7_213)">
<path d="M79.958 50.387C79.7608 45.8524 78.9722 40.8249 77.7892 36.0931C76.6063 31.5585 75.1276 27.3196 73.3532 24.0665C66.4527 11.9414 58.9608 13.8144 49.9901 16.1803C47.1313 16.8703 44.0754 17.6589 40.9209 17.9547H39.9351C36.7806 17.6589 33.7247 16.8703 30.8659 16.1803C21.8952 13.9129 14.4033 11.9414 7.50277 24.1651C5.72836 27.4182 4.1511 31.6571 3.06674 36.1917C1.88379 40.9235 1.09517 45.951 0.898009 50.4856C0.700852 55.5131 1.19374 59.1605 2.27811 61.7235C3.36247 64.0894 4.93973 65.5681 7.00988 66.1596C8.88287 66.6524 11.0516 66.4553 13.3189 65.4695C17.1635 63.8923 21.5995 60.5406 25.937 56.4989C28.9929 53.5415 34.7104 52.0628 40.428 52.0628C46.1455 52.0628 51.8631 53.5415 54.919 56.4989C59.2565 60.5406 63.6925 63.8923 67.5371 65.4695C69.8044 66.3567 71.9731 66.6524 73.8461 66.1596C75.8177 65.5681 77.4935 64.188 78.5779 61.6249C79.6622 59.1605 80.1551 55.5131 79.958 50.387ZM75.2262 60.2449C74.6347 61.6249 73.8461 62.4136 72.8603 62.7093C71.776 63.005 70.3959 62.8079 68.8186 62.2164C65.3684 60.8363 61.3266 57.7804 57.3835 54.0344C53.6375 50.2884 47.0328 48.4154 40.428 48.4154C33.8232 48.4154 27.2185 50.2884 23.3739 53.8372C19.3322 57.5832 15.2905 60.7377 11.9388 62.0193C10.3615 62.6107 8.98145 62.9065 7.89708 62.5122C6.9113 62.2164 6.12267 61.4278 5.5312 60.0477C4.74257 58.1747 4.34826 55.1188 4.54541 50.5842C4.74257 46.3453 5.43262 41.5149 6.61556 36.9803C7.69993 32.7414 9.08003 28.7983 10.7559 25.8409C16.1777 16.0817 22.4867 17.6589 29.9787 19.6305C33.0346 20.4191 36.1891 21.2078 39.6394 21.5035C39.7379 21.5035 39.7379 21.5035 39.8365 21.5035H40.9209C41.0195 21.5035 41.0195 21.5035 41.118 21.5035C44.6669 21.2078 47.8214 20.4191 50.8773 19.6305C58.3693 17.7575 64.6783 16.0817 70.1001 25.8409C71.776 28.7983 73.1561 32.6429 74.2404 36.9803C75.3248 41.5149 76.1134 46.2467 76.3106 50.5842C76.5077 55.1188 76.1134 58.1747 75.2262 60.2449Z" fill="black"/>
<path d="M31.3619 31.1622C30.3761 30.275 29.1931 29.585 27.813 29.4864C27.7145 28.2049 27.123 26.9233 26.2358 26.0361L26.1372 25.9376C25.0528 24.8532 23.6727 24.2617 22.0955 24.2617C20.5182 24.2617 19.0395 24.9518 18.0538 25.9376C17.1666 26.8248 16.4765 28.1063 16.3779 29.4864C14.9978 29.585 13.8149 30.1764 12.8291 31.0636L12.7305 31.1622C11.6462 32.2466 11.0547 33.6267 11.0547 35.2039C11.0547 36.7812 11.7447 38.2599 12.7305 39.2457C13.7163 40.2314 14.8992 40.8229 16.3779 40.9215C16.4765 42.3016 17.068 43.5831 18.0538 44.4703C19.1381 45.5547 20.5182 46.1461 22.0955 46.1461C23.6727 46.1461 25.1514 45.4561 26.1372 44.4703C27.0244 43.4845 27.7145 42.3016 27.813 40.9215C29.1931 40.8229 30.4747 40.2314 31.3619 39.2457C32.4462 38.1613 33.0377 36.7812 33.0377 35.2039C33.0377 33.6267 32.3476 32.148 31.3619 31.1622ZM28.8974 36.6826C28.5031 37.0769 28.0102 37.2741 27.4187 37.2741H26.0386C25.0528 37.2741 24.1656 38.0627 24.1656 39.1471V40.4286C24.1656 41.0201 23.9685 41.513 23.5742 41.9073C23.1798 42.3016 22.687 42.4987 22.0955 42.4987C21.504 42.4987 21.0111 42.3016 20.6168 41.9073C20.2225 41.513 20.0253 41.0201 20.0253 40.4286V39.0485C20.0253 38.0627 19.2367 37.1755 18.1523 37.1755H16.7722C16.1808 37.1755 15.6879 36.9783 15.2936 36.584C14.9978 36.2883 14.7021 35.7954 14.7021 35.2039C14.7021 34.6125 14.8992 34.1196 15.2936 33.7253C15.2936 33.7253 15.2936 33.7253 15.3921 33.6267C15.7865 33.3309 16.2793 33.1338 16.7722 33.1338H18.1523C19.1381 33.1338 20.0253 32.3452 20.0253 31.2608V29.8807C20.0253 29.2892 20.2225 28.7963 20.6168 28.402C21.0111 28.0077 21.504 27.8105 22.0955 27.8105C22.687 27.8105 23.1798 28.0077 23.5742 28.402C23.5742 28.402 23.5742 28.402 23.6727 28.5006C23.9685 28.8949 24.1656 29.3878 24.1656 29.8807V31.2608C24.1656 32.2466 24.9543 33.1338 26.0386 33.1338H27.4187C28.0102 33.1338 28.5031 33.3309 28.8974 33.7253C29.2917 34.1196 29.4889 34.6125 29.4889 35.2039C29.4889 35.7954 29.2917 36.2883 28.8974 36.6826Z" fill="black"/>
<path d="M57.5792 31.6583C59.4847 31.6583 61.0294 30.1136 61.0294 28.2081C61.0294 26.3025 59.4847 24.7578 57.5792 24.7578C55.6736 24.7578 54.1289 26.3025 54.1289 28.2081C54.1289 30.1136 55.6736 31.6583 57.5792 31.6583Z" fill="black"/>
<path d="M57.5792 45.6544C59.4847 45.6544 61.0294 44.1097 61.0294 42.2042C61.0294 40.2986 59.4847 38.7539 57.5792 38.7539C55.6736 38.7539 54.1289 40.2986 54.1289 42.2042C54.1289 44.1097 55.6736 45.6544 57.5792 45.6544Z" fill="black"/>
<path d="M50.5831 38.6544C52.4886 38.6544 54.0333 37.1097 54.0333 35.2042C54.0333 33.2986 52.4886 31.7539 50.5831 31.7539C48.6775 31.7539 47.1328 33.2986 47.1328 35.2042C47.1328 37.1097 48.6775 38.6544 50.5831 38.6544Z" fill="black"/>
<path d="M64.5792 38.6544C66.4847 38.6544 68.0294 37.1097 68.0294 35.2042C68.0294 33.2986 66.4847 31.7539 64.5792 31.7539C62.6736 31.7539 61.1289 33.2986 61.1289 35.2042C61.1289 37.1097 62.6736 38.6544 64.5792 38.6544Z" fill="black"/>
</g>
<defs>
<clipPath id="clip0_7_213">
<rect width="79.145" height="79.145" fill="white" transform="translate(0.855469 0.855469)"/>
</clipPath>
</defs>
</svg>
