<svg width="82" height="82" viewBox="0 0 82 82" fill="none" xmlns="http://www.w3.org/2000/svg">
<g clip-path="url(#clip0_7_154)">
<path d="M78.7907 14.8941H44.8615L57.0216 2.73395C57.647 2.10856 57.647 1.09448 57.0216 0.468924C56.3961 -0.156308 55.3823 -0.156308 54.7566 0.468924L40.9949 14.2306L27.2334 0.468924C26.6079 -0.156308 25.5941 -0.156308 24.9684 0.468924C24.343 1.09432 24.343 2.1084 24.9684 2.73395L37.1285 14.8941H3.19913C1.43297 14.8941 -0.00390625 16.331 -0.00390625 18.0971V72.1387C-0.00390625 73.9049 1.43297 75.3418 3.19913 75.3418H6.38102L9.37201 81.1316C9.64699 81.6637 10.196 81.998 10.795 81.998H18.098C18.697 81.998 19.246 81.6637 19.521 81.1316L22.512 75.3418H59.4782L62.4692 81.1316C62.7442 81.6637 63.2932 81.998 63.8921 81.998H71.1952C71.7942 81.998 72.3432 81.6637 72.6182 81.1316L75.6092 75.3418H78.791C80.5572 75.3418 81.9941 73.9049 81.9941 72.1387V18.0971C81.9938 16.3308 80.557 14.8941 78.7907 14.8941ZM17.1227 78.795H11.7703L9.98636 75.3418H18.9066L17.1227 78.795ZM70.2197 78.795H64.8673L63.0834 75.3416H72.0037L70.2197 78.795ZM78.7907 72.1387H3.19913V18.0971H78.7907L78.7928 72.1386C78.7928 72.1386 78.7922 72.1387 78.7907 72.1387Z" fill="black"/>
<path d="M57.2322 21.6133H14.8419C10.2466 21.6133 6.50781 25.352 6.50781 29.9474V59.7018C6.50781 64.2974 10.2466 68.0361 14.8419 68.0361H57.2322C61.8276 68.0361 65.5663 64.2974 65.5663 59.7018V29.9474C65.5663 25.3519 61.8276 21.6133 57.2322 21.6133ZM62.3633 59.7018C62.3633 62.5312 60.0614 64.8331 57.2322 64.8331H14.8419C12.0127 64.8331 9.71085 62.5312 9.71085 59.7018V29.9474C9.71085 27.1182 12.0127 24.8163 14.8419 24.8163H40.685L16.409 49.0923C15.7836 49.7177 15.7836 50.7317 16.409 51.3573C16.7218 51.6699 17.1316 51.8264 17.5415 51.8264C17.9513 51.8264 18.3611 51.6699 18.6739 51.3573L45.215 24.8163H57.2322C60.0614 24.8163 62.3633 27.1182 62.3633 29.9474V59.7018Z" fill="black"/>
<path d="M72.2928 44.0078C69.6436 44.0078 67.4883 46.1631 67.4883 48.8124C67.4883 51.4616 69.6436 53.6169 72.2928 53.6169C74.9421 53.6169 77.0974 51.4616 77.0974 48.8124C77.0974 46.1631 74.9421 44.0078 72.2928 44.0078ZM72.2928 50.4139C71.4098 50.4139 70.6913 49.6954 70.6913 48.8124C70.6913 47.9293 71.4098 47.2108 72.2928 47.2108C73.1759 47.2108 73.8943 47.9293 73.8943 48.8124C73.8943 49.6954 73.1759 50.4139 72.2928 50.4139Z" fill="black"/>
<path d="M72.2928 58.4219C69.6436 58.4219 67.4883 60.5772 67.4883 63.2264C67.4883 65.8757 69.6436 68.031 72.2928 68.031C74.9421 68.031 77.0974 65.8757 77.0974 63.2264C77.0974 60.5772 74.9421 58.4219 72.2928 58.4219ZM72.2928 64.8279C71.4098 64.8279 70.6913 64.1095 70.6913 63.2264C70.6913 62.3433 71.4098 61.6249 72.2928 61.6249C73.1759 61.6249 73.8943 62.3433 73.8943 63.2264C73.8943 64.1095 73.1759 64.8279 72.2928 64.8279Z" fill="black"/>
<path d="M75.1065 29.9883H69.0898C68.2054 29.9883 67.4883 30.7054 67.4883 31.5898C67.4883 32.4742 68.2053 33.1913 69.0898 33.1913H75.1065C75.9909 33.1913 76.7081 32.4742 76.7081 31.5898C76.7081 30.7054 75.9909 29.9883 75.1065 29.9883Z" fill="black"/>
<path d="M75.1065 23.4766H69.0898C68.2054 23.4766 67.4883 24.1937 67.4883 25.0781C67.4883 25.9624 68.2053 26.6796 69.0898 26.6796H75.1065C75.9909 26.6796 76.7081 25.9624 76.7081 25.0781C76.7081 24.1937 75.9909 23.4766 75.1065 23.4766Z" fill="black"/>
<path d="M75.1065 36.5078H69.0898C68.2054 36.5078 67.4883 37.225 67.4883 38.1093C67.4883 38.9937 68.2053 39.7108 69.0898 39.7108H75.1065C75.9909 39.7108 76.7081 38.9937 76.7081 38.1093C76.7081 37.225 75.9909 36.5078 75.1065 36.5078Z" fill="black"/>
<path d="M44.7712 37.1447C44.1457 36.5195 43.1319 36.5195 42.5063 37.1447L27.8597 51.7914C27.2343 52.4168 27.2343 53.4309 27.8597 54.0564C28.1724 54.369 28.5823 54.5255 28.9921 54.5255C29.4019 54.5255 29.8118 54.369 30.1245 54.0564L44.7712 39.4097C45.3966 38.7843 45.3966 37.7703 44.7712 37.1447Z" fill="black"/>
<path d="M24.593 57.3247C24.2953 57.0267 23.8821 56.8555 23.4609 56.8555C23.0397 56.8555 22.6265 57.0267 22.3286 57.3247C22.0307 57.6228 21.8594 58.0358 21.8594 58.457C21.8594 58.8782 22.0306 59.2914 22.3286 59.5891C22.6265 59.887 23.0397 60.0585 23.4609 60.0585C23.8821 60.0585 24.2953 59.8871 24.593 59.5891C24.8909 59.2914 25.0624 58.8782 25.0624 58.457C25.0624 58.0358 24.891 57.6226 24.593 57.3247Z" fill="black"/>
</g>
<defs>
<clipPath id="clip0_7_154">
<rect width="81.998" height="81.998" fill="white"/>
</clipPath>
</defs>
</svg>
