<svg width="84" height="84" viewBox="0 0 84 84" fill="none" xmlns="http://www.w3.org/2000/svg">
<g clip-path="url(#clip0_7_188)">
<path d="M58.7109 10.332C58.031 10.332 57.4805 10.8832 57.4805 11.5625V17.2226C57.4805 17.902 58.031 18.4531 58.7109 18.4531C59.3903 18.4531 59.9414 17.902 59.9414 17.2226V11.5625C59.9414 10.8832 59.3903 10.332 58.7109 10.332Z" fill="black"/>
<path d="M68.6289 10.332C67.9489 10.332 67.3984 10.8832 67.3984 11.5625V17.2226C67.3984 17.902 67.9489 18.4531 68.6289 18.4531C69.3089 18.4531 69.8594 17.902 69.8594 17.2226V11.5625C69.8594 10.8832 69.3089 10.332 68.6289 10.332Z" fill="black"/>
<path d="M57.0703 51H63.7969C64.4762 51 65.0273 50.4488 65.0273 49.7695C65.0273 49.0902 64.4762 48.5391 63.7969 48.5391H57.0703C56.3903 48.5391 55.8398 49.0902 55.8398 49.7695C55.8398 50.4488 56.3903 51 57.0703 51Z" fill="black"/>
<path d="M63.7969 67.9531H57.0703C56.3903 67.9531 55.8398 68.5043 55.8398 69.1836C55.8398 69.8636 56.3903 70.4141 57.0703 70.4141H63.7969C64.4762 70.4141 65.0273 69.8636 65.0273 69.1836C65.0273 68.5043 64.4762 67.9531 63.7969 67.9531Z" fill="black"/>
<path d="M81.4549 38.5799H73.1986C72.5187 38.5799 71.9682 39.1304 71.9682 39.8104C71.9682 40.4897 72.5187 41.0409 73.1986 41.0409H81.4549C81.5011 41.0409 81.5389 41.078 81.5389 41.1248V44.0965C81.5389 44.1433 81.5011 44.1811 81.4549 44.1811H2.54489C2.49874 44.1811 2.46093 44.1433 2.46093 44.0965V41.1248C2.46093 41.0787 2.49874 41.0409 2.54489 41.0409H68.2768C68.9567 41.0409 69.5072 40.4897 69.5072 39.8104C69.5072 39.1304 68.9567 38.5799 68.2768 38.5799H28.7545V36.5055C30.2169 36.4446 31.3871 35.2359 31.3871 33.7587V32.0508C31.3871 31.3715 30.8366 30.8203 30.1567 30.8203C29.4774 30.8203 28.9262 31.3715 28.9262 32.0508V33.7587C28.9262 33.9176 28.7974 34.0471 28.6385 34.0471H10.1674C10.0084 34.0471 9.87898 33.9176 9.87898 33.7587V32.0508C9.87898 31.3715 9.32847 30.8203 8.64851 30.8203C7.96919 30.8203 7.41805 31.3715 7.41805 32.0508V33.7587C7.41805 35.2359 8.58891 36.4446 10.0514 36.5055V38.5799H2.54489C1.14203 38.5799 0 39.7213 0 41.1248V44.0965C0 45.5 1.14203 46.6421 2.54489 46.6421H3.90737V80.337C3.90737 82.3006 5.50441 83.8976 7.46803 83.8976H76.5318C78.4954 83.8976 80.0925 82.3006 80.0925 80.337V46.6421H81.4549C82.8578 46.6421 83.9998 45.5 83.9998 44.0965V41.1248C83.9998 39.7213 82.8578 38.5799 81.4549 38.5799ZM12.5123 36.508H26.2935V38.5799H12.5123V36.508ZM6.3683 80.337V46.6421H40.7695V81.4367H7.46803C6.86113 81.4367 6.3683 80.9439 6.3683 80.337ZM76.5318 81.4367H43.2304V65.3676H77.6322V80.337C77.6322 80.9439 77.1387 81.4367 76.5318 81.4367ZM77.6322 62.9066H43.2304V46.6421H77.6322V62.9066Z" fill="black"/>
<path d="M36.1712 58.5078H11.4106C10.1609 58.5078 9.14453 59.5242 9.14453 60.7739V76.661C9.14453 77.9107 10.1609 78.9271 11.4106 78.9271H36.1712C37.4209 78.9271 38.4373 77.9107 38.4373 76.661V60.7739C38.4373 59.5242 37.4209 58.5078 36.1712 58.5078ZM35.9764 76.4662H11.6055V60.9694H35.9764V76.4662Z" fill="black"/>
<path d="M13.1641 56.5781C15.3808 56.5781 17.1836 54.7747 17.1836 52.5586C17.1836 50.3425 15.3808 48.5391 13.1641 48.5391C10.9479 48.5391 9.14453 50.3425 9.14453 52.5586C9.14453 54.7747 10.9479 56.5781 13.1641 56.5781ZM13.1641 51C14.0235 51 14.7226 51.6992 14.7226 52.5586C14.7226 53.418 14.0235 54.1172 13.1641 54.1172C12.3047 54.1172 11.6055 53.418 11.6055 52.5586C11.6055 51.6992 12.3047 51 13.1641 51Z" fill="black"/>
<path d="M23.7891 56.5781C26.0052 56.5781 27.8086 54.7747 27.8086 52.5586C27.8086 50.3425 26.0052 48.5391 23.7891 48.5391C21.5729 48.5391 19.7695 50.3425 19.7695 52.5586C19.7695 54.7747 21.5729 56.5781 23.7891 56.5781ZM23.7891 51C24.6485 51 25.3476 51.6992 25.3476 52.5586C25.3476 53.418 24.6485 54.1172 23.7891 54.1172C22.9297 54.1172 22.2305 53.418 22.2305 52.5586C22.2305 51.6992 22.9297 51 23.7891 51Z" fill="black"/>
<path d="M80.6409 0H46.6986C44.8465 0 43.3398 1.50668 43.3398 3.35879V25.2412C43.3398 27.0933 44.8465 28.6007 46.6986 28.6007H80.6409C82.493 28.6007 83.9997 27.0933 83.9997 25.2412V3.35879C83.9997 1.50668 82.493 0 80.6409 0ZM45.8008 25.2412V3.35879C45.8008 2.86404 46.2032 2.46093 46.6986 2.46093H62.439V26.1397H46.6986C46.2032 26.1397 45.8008 25.7366 45.8008 25.2412ZM81.5388 25.2412C81.5388 25.7366 81.1363 26.1397 80.6409 26.1397H64.8999V2.46093H80.6409C81.1363 2.46093 81.5388 2.86404 81.5388 3.35879V25.2412Z" fill="black"/>
<path d="M2.45324 15.5296H37.8285C39.1814 15.5296 40.2824 14.4293 40.2824 13.0758V10.8718C40.2824 9.51894 39.182 8.41857 37.8285 8.41857H35.9597C35.5316 5.70129 33.1739 3.61719 30.3387 3.61719H9.94371C7.10851 3.61719 4.75075 5.70129 4.32265 8.41857H2.45324C1.10037 8.41857 0 9.51894 0 10.8718V13.0764C0 14.4293 1.10037 15.5296 2.45324 15.5296ZM10.623 10.8795C11.3023 10.8795 11.8535 10.3284 11.8535 9.64904C11.8535 8.96972 11.3023 8.41857 10.623 8.41857H6.8387C7.22579 7.0689 8.47163 6.07812 9.94371 6.07812H30.3387C31.8108 6.07812 33.0566 7.0689 33.4437 8.41857H15.6231C14.9438 8.41857 14.3926 8.96972 14.3926 9.64904C14.3926 10.3284 14.9438 10.8795 15.6231 10.8795L34.6729 10.8731C34.7139 10.8776 34.7562 10.8795 34.7985 10.8795C34.8414 10.8795 34.8837 10.8776 34.926 10.8731L37.8215 10.8725L37.8285 13.0687L2.46093 13.0764L2.45324 10.8795H10.623Z" fill="black"/>
</g>
<defs>
<clipPath id="clip0_7_188">
<rect width="84" height="84" fill="white"/>
</clipPath>
</defs>
</svg>
