<svg width="99" height="99" viewBox="0 0 99 99" fill="none" xmlns="http://www.w3.org/2000/svg">
<path d="M25.5933 67.9032H10.3233V43.5582C10.3233 41.1732 8.38835 39.2382 6.00335 39.2382C3.61835 39.2382 1.68335 41.1732 1.68335 43.5582V95.8632C1.68335 96.5832 2.26835 97.1832 3.00335 97.1832H9.00335C9.72335 97.1832 10.3233 96.5982 10.3233 95.8632V93.9882H25.7883V95.8632C25.7883 96.5832 26.3733 97.1832 27.1083 97.1832H33.1083C33.8283 97.1832 34.4283 96.5982 34.4283 95.8632V76.7082C34.4133 71.8632 30.4533 67.9032 25.5933 67.9032ZM10.3233 91.3632V76.5282H25.5933C25.6983 76.5282 25.7883 76.6182 25.7883 76.7232V91.3632H10.3233ZM31.7883 94.5582H28.4133V76.7082C28.4133 75.1632 27.1533 73.8882 25.5933 73.8882H9.00335C8.28335 73.8882 7.68335 74.4732 7.68335 75.2082V94.5432H4.32335V43.5432C4.32335 42.6132 5.07335 41.8482 6.01835 41.8482C6.96335 41.8482 7.71335 42.5982 7.71335 43.5432V69.1932C7.71335 69.9132 8.29835 70.5132 9.03335 70.5132H25.6234C29.0283 70.5132 31.8183 73.2882 31.8183 76.7082V94.5582H31.7883Z" fill="black"/>
<path d="M93.0035 39.2577C90.6335 39.2577 88.6835 41.1927 88.6835 43.5777V67.9227H73.4135C68.5535 67.9227 64.5935 71.8827 64.5935 76.7427V95.8977C64.5935 96.6177 65.1785 97.2177 65.9135 97.2177H71.9135C72.6335 97.2177 73.2335 96.6327 73.2335 95.8977V94.0227H88.6985V95.8977C88.6985 96.6177 89.2835 97.2177 90.0185 97.2177H96.0185C96.7385 97.2177 97.3385 96.6327 97.3385 95.8977V43.5627C97.3085 41.1927 95.3735 39.2577 93.0035 39.2577ZM73.2185 91.3677V76.7277C73.2185 76.6227 73.3085 76.5327 73.4135 76.5327H88.6835V91.3677H73.2185ZM94.6835 94.5627H91.3085V75.2127C91.3085 74.4927 90.7235 73.8927 89.9885 73.8927H73.4135C71.8685 73.8927 70.5935 75.1527 70.5935 76.7127V94.5477H67.2185V76.7127C67.2185 73.3077 69.9935 70.5177 73.4135 70.5177H90.0035C90.7235 70.5177 91.3235 69.9327 91.3235 69.1977V43.5477C91.3235 42.6177 92.0735 41.8527 93.0185 41.8527C93.9635 41.8527 94.7135 42.6027 94.7135 43.5477V94.5627H94.6835Z" fill="black"/>
<path d="M56.3746 68.5078C58.7446 68.5078 60.6946 66.5728 60.6946 64.1878V63.4378H71.5396C74.1796 63.4378 76.3246 61.2928 76.3246 58.6528C76.3246 56.0128 74.1796 53.8678 71.5396 53.8678H54.3796L56.6896 41.4778C56.7646 41.0878 56.6596 40.6978 56.4046 40.3978C56.1496 40.0978 55.7896 39.9178 55.3996 39.9178H43.6096C43.2196 39.9178 42.8446 40.0978 42.6046 40.3978C42.3496 40.6978 42.2446 41.0878 42.3196 41.4778L43.2046 46.2478L44.6296 53.8678H27.4846C24.8446 53.8678 22.7146 56.0128 22.7146 58.6528C22.7146 61.2928 24.8596 63.4378 27.4846 63.4378H38.3296V64.1878C38.3296 66.5728 40.2646 68.5078 42.6496 68.5078H45.4846V94.5629H40.0546C39.3346 94.5629 38.7346 95.1478 38.7346 95.8828C38.7346 96.6178 39.3196 97.2029 40.0546 97.2029H58.9846C59.7046 97.2029 60.3046 96.6178 60.3046 95.8828C60.3046 95.1478 59.7196 94.5629 58.9846 94.5629H53.5546V68.5078H56.3746ZM53.8246 42.5578L53.4196 44.7028H45.5896L45.1846 42.5578H53.8246ZM46.0846 47.3278H52.9396L51.7246 53.8828H47.3146L46.0846 47.3278ZM25.3396 58.6528C25.3396 57.4678 26.2996 56.4928 27.4846 56.4928H71.5246C72.7096 56.4928 73.6846 57.4528 73.6846 58.6528C73.6846 59.8528 72.7246 60.8128 71.5246 60.8128H27.4846C26.2996 60.8128 25.3396 59.8528 25.3396 58.6528ZM40.9546 64.1878V63.4378H58.0546V64.1878C58.0546 65.1178 57.3046 65.8828 56.3596 65.8828H42.6346C41.7046 65.8828 40.9546 65.1178 40.9546 64.1878ZM50.9146 94.5629H48.0946V68.5078H50.9146V94.5629Z" fill="black"/>
<path d="M37.4554 23.9419H43.1254C43.7404 26.8969 46.3654 29.1319 49.5004 29.1319C52.6354 29.1319 55.2604 26.8969 55.8754 23.9419H61.5454C62.0704 23.9419 62.5504 23.6269 62.7604 23.1319C62.9554 22.6369 62.8504 22.0819 62.4754 21.7069L50.8204 10.0519V3.15191C50.8204 2.43191 50.2354 1.83191 49.5004 1.83191C48.7654 1.83191 48.1804 2.41691 48.1804 3.15191V10.0519L36.5254 21.7069C36.1504 22.0819 36.0454 22.6519 36.2404 23.1319C36.4504 23.6269 36.9304 23.9419 37.4554 23.9419ZM49.5004 26.5069C47.8204 26.5069 46.3804 25.4419 45.8554 23.9419H53.1604C52.6054 25.4419 51.1804 26.5069 49.5004 26.5069ZM49.5004 12.4369L58.3804 21.3169H54.7054H44.3254H40.6504L49.5004 12.4369Z" fill="black"/>
</svg>
