<svg width="21" height="27" viewBox="0 0 21 27" fill="none" xmlns="http://www.w3.org/2000/svg">
<path d="M10.1712 10.9828C7.18791 10.9366 4.90899 8.5384 4.88881 5.70038C4.93809 2.74371 7.35473 0.438702 10.1712 0.417969C13.1571 0.53088 15.4324 2.8164 15.4536 5.70038C15.3949 8.65939 12.9906 10.9628 10.1712 10.9828ZM14.4421 12.0786C18.1968 12.1225 20.1007 15.416 20.1181 18.7096V26.83H16.4372L16.4372 19.6932C16.3476 19.1998 16.0134 19.0325 15.7073 19.0809C15.4207 19.1262 15.1586 19.3604 15.1447 19.6932V26.83H4.91729V19.6932C4.839 19.2236 4.5403 19.0431 4.2497 19.0613C3.93852 19.0809 3.63666 19.3284 3.62477 19.6932V26.83H0.000155749V18.7096C-0.0214141 15.1995 2.19898 12.1046 5.70377 12.0786H14.4421Z" fill="black"/>
</svg>
