<svg width="19" height="19" viewBox="0 0 19 19" fill="none" xmlns="http://www.w3.org/2000/svg">
<path d="M17.7741 13.0274L13.3453 11.0428C13.1447 10.9568 12.9257 10.9222 12.7083 10.9422C12.4909 10.9622 12.282 11.036 12.1003 11.1571C12.0819 11.169 12.0643 11.1821 12.0478 11.1965L9.73314 13.1653C9.70912 13.1784 9.68239 13.1857 9.65505 13.1867C9.62771 13.1876 9.60052 13.1822 9.57564 13.1709C8.08782 12.4528 6.54657 10.9209 5.82564 9.4537C5.81363 9.42918 5.80739 9.40224 5.80739 9.37495C5.80739 9.34765 5.81363 9.32071 5.82564 9.2962L7.80095 6.95245C7.81512 6.9351 7.82827 6.91695 7.84032 6.89807C7.95975 6.71573 8.03189 6.50652 8.05022 6.28932C8.06855 6.07213 8.0325 5.85379 7.94532 5.65401L5.9747 1.23276C5.86279 0.971767 5.66925 0.754111 5.42313 0.612457C5.17701 0.470803 4.89159 0.412793 4.6097 0.447134C3.3846 0.608193 2.26006 1.20983 1.44622 2.1396C0.632384 3.06938 0.184943 4.26368 0.187511 5.49932C0.187511 12.8399 6.15939 18.8118 13.5 18.8118C14.7356 18.8142 15.9298 18.3667 16.8595 17.5529C17.7893 16.7391 18.3909 15.6147 18.5522 14.3896C18.5865 14.1091 18.5292 13.8249 18.389 13.5795C18.2488 13.3341 18.0332 13.1404 17.7741 13.0274ZM13.5 17.6868C6.78001 17.6868 1.31251 12.2193 1.31251 5.49932C1.30938 4.53738 1.65658 3.6072 2.28924 2.88258C2.9219 2.15796 3.79675 1.68847 4.75032 1.56182H4.77189C4.80967 1.56253 4.84635 1.57463 4.87713 1.59655C4.90791 1.61846 4.93136 1.64917 4.94439 1.68463L6.92251 6.1012C6.93379 6.12575 6.93963 6.15245 6.93963 6.17948C6.93963 6.2065 6.93379 6.2332 6.92251 6.25776L4.94345 8.60713C4.92868 8.62391 4.91521 8.64177 4.90314 8.66057C4.7793 8.84962 4.70637 9.06745 4.69143 9.29296C4.67648 9.51847 4.72002 9.74401 4.81782 9.94776C5.64939 11.6503 7.36501 13.3528 9.08626 14.1843C9.29119 14.2816 9.51784 14.3241 9.74409 14.3076C9.97034 14.2912 10.1885 14.2164 10.3772 14.0906C10.395 14.0784 10.4128 14.0653 10.4297 14.0512L12.7434 12.0824C12.7663 12.0702 12.7915 12.063 12.8174 12.0614C12.8433 12.0597 12.8692 12.0637 12.8934 12.0731L17.3231 14.0578C17.3593 14.0732 17.3897 14.0996 17.4101 14.1332C17.4305 14.1669 17.4397 14.2061 17.4366 14.2453C17.3106 15.1993 16.8415 16.0748 16.1171 16.7081C15.3926 17.3415 14.4623 17.6894 13.5 17.6868Z" fill="white"/>
</svg>
